<mxfile host="Electron" agent="Mozilla/5.0 (X11; Linux x86_64) AppleWebKit/537.36 (KHTML, like Gecko) draw.io/24.7.17 Chrome/128.0.6613.36 Electron/32.0.1 Safari/537.36" version="24.7.17">
  <diagram name="Page-1" id="_ZwgQ4hGKMNue7Y76wZm">
    <mxGraphModel dx="2463" dy="1594" grid="1" gridSize="10" guides="1" tooltips="1" connect="1" arrows="1" fold="1" page="1" pageScale="1" pageWidth="850" pageHeight="1100" math="0" shadow="0">
      <root>
        <mxCell id="0" />
        <mxCell id="1" parent="0" />
        <mxCell id="wG8J5El7ALpnyZ5ioJnW-1" value="=" style="rounded=0;whiteSpace=wrap;html=1;labelBackgroundColor=none;" parent="1" vertex="1">
          <mxGeometry x="10" y="1020" width="1600" height="900" as="geometry" />
        </mxCell>
        <mxCell id="wG8J5El7ALpnyZ5ioJnW-2" value="" style="rounded=0;whiteSpace=wrap;html=1;labelBackgroundColor=none;" parent="1" vertex="1">
          <mxGeometry x="10" y="1020" width="230" height="900" as="geometry" />
        </mxCell>
        <mxCell id="wG8J5El7ALpnyZ5ioJnW-3" value="" style="shape=mxgraph.sysml.x;rounded=0;labelBackgroundColor=none;" parent="1" vertex="1">
          <mxGeometry x="10" y="1020" width="230" height="900" as="geometry" />
        </mxCell>
        <mxCell id="wG8J5El7ALpnyZ5ioJnW-4" value="&lt;font style=&quot;font-size: 20px;&quot;&gt;Inventory&lt;/font&gt;" style="rounded=0;whiteSpace=wrap;html=1;" parent="1" vertex="1">
          <mxGeometry x="240" y="1020" width="1370" height="100" as="geometry" />
        </mxCell>
        <mxCell id="wG8J5El7ALpnyZ5ioJnW-5" value="=" style="rounded=0;whiteSpace=wrap;html=1;labelBackgroundColor=none;" parent="1" vertex="1">
          <mxGeometry x="1810" y="1030" width="1600" height="900" as="geometry" />
        </mxCell>
        <mxCell id="wG8J5El7ALpnyZ5ioJnW-6" value="" style="shape=table;startSize=0;container=1;collapsible=0;childLayout=tableLayout;fontSize=16;flipH=1;" parent="1" vertex="1">
          <mxGeometry x="420" y="1120" width="1190" height="803" as="geometry" />
        </mxCell>
        <mxCell id="wG8J5El7ALpnyZ5ioJnW-7" value="" style="shape=tableRow;horizontal=0;startSize=0;swimlaneHead=0;swimlaneBody=0;strokeColor=inherit;top=0;left=0;bottom=0;right=0;collapsible=0;dropTarget=0;fillColor=none;points=[[0,0.5],[1,0.5]];portConstraint=eastwest;fontSize=16;" parent="wG8J5El7ALpnyZ5ioJnW-6" vertex="1">
          <mxGeometry width="1190" height="70" as="geometry" />
        </mxCell>
        <mxCell id="wG8J5El7ALpnyZ5ioJnW-8" value="." style="shape=partialRectangle;html=1;whiteSpace=wrap;connectable=0;strokeColor=inherit;overflow=hidden;fillColor=none;top=0;left=0;bottom=0;right=0;pointerEvents=1;fontSize=16;" parent="wG8J5El7ALpnyZ5ioJnW-7" vertex="1">
          <mxGeometry width="52" height="70" as="geometry">
            <mxRectangle width="52" height="70" as="alternateBounds" />
          </mxGeometry>
        </mxCell>
        <mxCell id="wG8J5El7ALpnyZ5ioJnW-9" value="Name" style="shape=partialRectangle;html=1;whiteSpace=wrap;connectable=0;strokeColor=inherit;overflow=hidden;fillColor=none;top=0;left=0;bottom=0;right=0;pointerEvents=1;fontSize=16;" parent="wG8J5El7ALpnyZ5ioJnW-7" vertex="1">
          <mxGeometry x="52" width="261" height="70" as="geometry">
            <mxRectangle width="261" height="70" as="alternateBounds" />
          </mxGeometry>
        </mxCell>
        <mxCell id="wG8J5El7ALpnyZ5ioJnW-19" value="Properties" style="shape=partialRectangle;html=1;whiteSpace=wrap;connectable=0;strokeColor=inherit;overflow=hidden;fillColor=none;top=0;left=0;bottom=0;right=0;pointerEvents=1;fontSize=16;" parent="wG8J5El7ALpnyZ5ioJnW-7" vertex="1">
          <mxGeometry x="313" width="338" height="70" as="geometry">
            <mxRectangle width="338" height="70" as="alternateBounds" />
          </mxGeometry>
        </mxCell>
        <mxCell id="wG8J5El7ALpnyZ5ioJnW-22" value="Price" style="shape=partialRectangle;html=1;whiteSpace=wrap;connectable=0;strokeColor=inherit;overflow=hidden;fillColor=none;top=0;left=0;bottom=0;right=0;pointerEvents=1;fontSize=16;" parent="wG8J5El7ALpnyZ5ioJnW-7" vertex="1">
          <mxGeometry x="651" width="209" height="70" as="geometry">
            <mxRectangle width="209" height="70" as="alternateBounds" />
          </mxGeometry>
        </mxCell>
        <mxCell id="wG8J5El7ALpnyZ5ioJnW-34" value="Qty" style="shape=partialRectangle;html=1;whiteSpace=wrap;connectable=0;strokeColor=inherit;overflow=hidden;fillColor=none;top=0;left=0;bottom=0;right=0;pointerEvents=1;fontSize=16;" parent="wG8J5El7ALpnyZ5ioJnW-7" vertex="1">
          <mxGeometry x="860" width="182" height="70" as="geometry">
            <mxRectangle width="182" height="70" as="alternateBounds" />
          </mxGeometry>
        </mxCell>
        <mxCell id="wG8J5El7ALpnyZ5ioJnW-37" value="Detail" style="shape=partialRectangle;html=1;whiteSpace=wrap;connectable=0;strokeColor=inherit;overflow=hidden;fillColor=none;top=0;left=0;bottom=0;right=0;pointerEvents=1;fontSize=16;" parent="wG8J5El7ALpnyZ5ioJnW-7" vertex="1">
          <mxGeometry x="1042" width="148" height="70" as="geometry">
            <mxRectangle width="148" height="70" as="alternateBounds" />
          </mxGeometry>
        </mxCell>
        <mxCell id="wG8J5El7ALpnyZ5ioJnW-11" value="" style="shape=tableRow;horizontal=0;startSize=0;swimlaneHead=0;swimlaneBody=0;strokeColor=inherit;top=0;left=0;bottom=0;right=0;collapsible=0;dropTarget=0;fillColor=none;points=[[0,0.5],[1,0.5]];portConstraint=eastwest;fontSize=16;" parent="wG8J5El7ALpnyZ5ioJnW-6" vertex="1">
          <mxGeometry y="70" width="1190" height="120" as="geometry" />
        </mxCell>
        <mxCell id="wG8J5El7ALpnyZ5ioJnW-12" value="1" style="shape=partialRectangle;html=1;whiteSpace=wrap;connectable=0;strokeColor=inherit;overflow=hidden;fillColor=none;top=0;left=0;bottom=0;right=0;pointerEvents=1;fontSize=16;" parent="wG8J5El7ALpnyZ5ioJnW-11" vertex="1">
          <mxGeometry width="52" height="120" as="geometry">
            <mxRectangle width="52" height="120" as="alternateBounds" />
          </mxGeometry>
        </mxCell>
        <mxCell id="wG8J5El7ALpnyZ5ioJnW-13" value="" style="shape=partialRectangle;html=1;whiteSpace=wrap;connectable=0;strokeColor=inherit;overflow=hidden;fillColor=none;top=0;left=0;bottom=0;right=0;pointerEvents=1;fontSize=16;" parent="wG8J5El7ALpnyZ5ioJnW-11" vertex="1">
          <mxGeometry x="52" width="261" height="120" as="geometry">
            <mxRectangle width="261" height="120" as="alternateBounds" />
          </mxGeometry>
        </mxCell>
        <mxCell id="wG8J5El7ALpnyZ5ioJnW-20" style="shape=partialRectangle;html=1;whiteSpace=wrap;connectable=0;strokeColor=inherit;overflow=hidden;fillColor=none;top=0;left=0;bottom=0;right=0;pointerEvents=1;fontSize=16;" parent="wG8J5El7ALpnyZ5ioJnW-11" vertex="1">
          <mxGeometry x="313" width="338" height="120" as="geometry">
            <mxRectangle width="338" height="120" as="alternateBounds" />
          </mxGeometry>
        </mxCell>
        <mxCell id="wG8J5El7ALpnyZ5ioJnW-23" style="shape=partialRectangle;html=1;whiteSpace=wrap;connectable=0;strokeColor=inherit;overflow=hidden;fillColor=none;top=0;left=0;bottom=0;right=0;pointerEvents=1;fontSize=16;" parent="wG8J5El7ALpnyZ5ioJnW-11" vertex="1">
          <mxGeometry x="651" width="209" height="120" as="geometry">
            <mxRectangle width="209" height="120" as="alternateBounds" />
          </mxGeometry>
        </mxCell>
        <mxCell id="wG8J5El7ALpnyZ5ioJnW-35" style="shape=partialRectangle;html=1;whiteSpace=wrap;connectable=0;strokeColor=inherit;overflow=hidden;fillColor=none;top=0;left=0;bottom=0;right=0;pointerEvents=1;fontSize=16;" parent="wG8J5El7ALpnyZ5ioJnW-11" vertex="1">
          <mxGeometry x="860" width="182" height="120" as="geometry">
            <mxRectangle width="182" height="120" as="alternateBounds" />
          </mxGeometry>
        </mxCell>
        <mxCell id="wG8J5El7ALpnyZ5ioJnW-38" style="shape=partialRectangle;html=1;whiteSpace=wrap;connectable=0;strokeColor=inherit;overflow=hidden;fillColor=none;top=0;left=0;bottom=0;right=0;pointerEvents=1;fontSize=16;" parent="wG8J5El7ALpnyZ5ioJnW-11" vertex="1">
          <mxGeometry x="1042" width="148" height="120" as="geometry">
            <mxRectangle width="148" height="120" as="alternateBounds" />
          </mxGeometry>
        </mxCell>
        <mxCell id="wG8J5El7ALpnyZ5ioJnW-15" value="" style="shape=tableRow;horizontal=0;startSize=0;swimlaneHead=0;swimlaneBody=0;strokeColor=inherit;top=0;left=0;bottom=0;right=0;collapsible=0;dropTarget=0;fillColor=none;points=[[0,0.5],[1,0.5]];portConstraint=eastwest;fontSize=16;" parent="wG8J5El7ALpnyZ5ioJnW-6" vertex="1">
          <mxGeometry y="190" width="1190" height="613" as="geometry" />
        </mxCell>
        <mxCell id="wG8J5El7ALpnyZ5ioJnW-16" value="" style="shape=partialRectangle;html=1;whiteSpace=wrap;connectable=0;strokeColor=inherit;overflow=hidden;fillColor=none;top=0;left=0;bottom=0;right=0;pointerEvents=1;fontSize=16;" parent="wG8J5El7ALpnyZ5ioJnW-15" vertex="1">
          <mxGeometry width="52" height="613" as="geometry">
            <mxRectangle width="52" height="613" as="alternateBounds" />
          </mxGeometry>
        </mxCell>
        <mxCell id="wG8J5El7ALpnyZ5ioJnW-17" value="" style="shape=partialRectangle;html=1;whiteSpace=wrap;connectable=0;strokeColor=inherit;overflow=hidden;fillColor=none;top=0;left=0;bottom=0;right=0;pointerEvents=1;fontSize=16;" parent="wG8J5El7ALpnyZ5ioJnW-15" vertex="1">
          <mxGeometry x="52" width="261" height="613" as="geometry">
            <mxRectangle width="261" height="613" as="alternateBounds" />
          </mxGeometry>
        </mxCell>
        <mxCell id="wG8J5El7ALpnyZ5ioJnW-21" style="shape=partialRectangle;html=1;whiteSpace=wrap;connectable=0;strokeColor=inherit;overflow=hidden;fillColor=none;top=0;left=0;bottom=0;right=0;pointerEvents=1;fontSize=16;" parent="wG8J5El7ALpnyZ5ioJnW-15" vertex="1">
          <mxGeometry x="313" width="338" height="613" as="geometry">
            <mxRectangle width="338" height="613" as="alternateBounds" />
          </mxGeometry>
        </mxCell>
        <mxCell id="wG8J5El7ALpnyZ5ioJnW-24" style="shape=partialRectangle;html=1;whiteSpace=wrap;connectable=0;strokeColor=inherit;overflow=hidden;fillColor=none;top=0;left=0;bottom=0;right=0;pointerEvents=1;fontSize=16;" parent="wG8J5El7ALpnyZ5ioJnW-15" vertex="1">
          <mxGeometry x="651" width="209" height="613" as="geometry">
            <mxRectangle width="209" height="613" as="alternateBounds" />
          </mxGeometry>
        </mxCell>
        <mxCell id="wG8J5El7ALpnyZ5ioJnW-36" style="shape=partialRectangle;html=1;whiteSpace=wrap;connectable=0;strokeColor=inherit;overflow=hidden;fillColor=none;top=0;left=0;bottom=0;right=0;pointerEvents=1;fontSize=16;" parent="wG8J5El7ALpnyZ5ioJnW-15" vertex="1">
          <mxGeometry x="860" width="182" height="613" as="geometry">
            <mxRectangle width="182" height="613" as="alternateBounds" />
          </mxGeometry>
        </mxCell>
        <mxCell id="wG8J5El7ALpnyZ5ioJnW-39" style="shape=partialRectangle;html=1;whiteSpace=wrap;connectable=0;strokeColor=inherit;overflow=hidden;fillColor=none;top=0;left=0;bottom=0;right=0;pointerEvents=1;fontSize=16;" parent="wG8J5El7ALpnyZ5ioJnW-15" vertex="1">
          <mxGeometry x="1042" width="148" height="613" as="geometry">
            <mxRectangle width="148" height="613" as="alternateBounds" />
          </mxGeometry>
        </mxCell>
        <mxCell id="wG8J5El7ALpnyZ5ioJnW-102" value="Edit" style="rounded=1;whiteSpace=wrap;html=1;" parent="1" vertex="1">
          <mxGeometry x="1470" y="1220" width="120" height="60" as="geometry" />
        </mxCell>
        <mxCell id="wG8J5El7ALpnyZ5ioJnW-104" value="" style="rounded=1;whiteSpace=wrap;html=1;" parent="1" vertex="1">
          <mxGeometry x="1810" y="1030" width="1600" height="80" as="geometry" />
        </mxCell>
        <mxCell id="wG8J5El7ALpnyZ5ioJnW-106" value="Save" style="rounded=1;whiteSpace=wrap;html=1;" parent="1" vertex="1">
          <mxGeometry x="3270" y="1040" width="120" height="60" as="geometry" />
        </mxCell>
        <mxCell id="wG8J5El7ALpnyZ5ioJnW-107" value="Cancel" style="rounded=1;whiteSpace=wrap;html=1;" parent="1" vertex="1">
          <mxGeometry x="3130" y="1040" width="120" height="60" as="geometry" />
        </mxCell>
        <mxCell id="wG8J5El7ALpnyZ5ioJnW-108" value="Text" style="text;html=1;align=center;verticalAlign=middle;whiteSpace=wrap;rounded=0;" parent="1" vertex="1">
          <mxGeometry x="1900" y="1055" width="60" height="30" as="geometry" />
        </mxCell>
        <mxCell id="wG8J5El7ALpnyZ5ioJnW-109" value="10000" style="rounded=1;whiteSpace=wrap;html=1;" parent="1" vertex="1">
          <mxGeometry x="2630" y="1180" width="410" height="60" as="geometry" />
        </mxCell>
        <mxCell id="wG8J5El7ALpnyZ5ioJnW-110" value="Name" style="text;html=1;align=center;verticalAlign=middle;whiteSpace=wrap;rounded=0;" parent="1" vertex="1">
          <mxGeometry x="2310" y="1195" width="60" height="30" as="geometry" />
        </mxCell>
        <mxCell id="wG8J5El7ALpnyZ5ioJnW-111" value="Category" style="text;html=1;align=center;verticalAlign=middle;whiteSpace=wrap;rounded=0;" parent="1" vertex="1">
          <mxGeometry x="2310" y="1315" width="60" height="30" as="geometry" />
        </mxCell>
        <mxCell id="wG8J5El7ALpnyZ5ioJnW-112" value="Option" style="rounded=1;whiteSpace=wrap;html=1;" parent="1" vertex="1">
          <mxGeometry x="2630" y="1300" width="410" height="60" as="geometry" />
        </mxCell>
        <mxCell id="wG8J5El7ALpnyZ5ioJnW-114" value="" style="rounded=1;whiteSpace=wrap;html=1;" parent="1" vertex="1">
          <mxGeometry x="2313" y="1635" width="760" height="235" as="geometry" />
        </mxCell>
        <mxCell id="wG8J5El7ALpnyZ5ioJnW-115" value="Properties" style="text;html=1;align=center;verticalAlign=middle;whiteSpace=wrap;rounded=0;" parent="1" vertex="1">
          <mxGeometry x="2310" y="1590" width="60" height="30" as="geometry" />
        </mxCell>
        <mxCell id="wG8J5El7ALpnyZ5ioJnW-118" value="Add" style="rounded=1;whiteSpace=wrap;html=1;" parent="1" vertex="1">
          <mxGeometry x="2973" y="1815" width="80" height="40" as="geometry" />
        </mxCell>
        <mxCell id="wG8J5El7ALpnyZ5ioJnW-132" value="Property" style="rounded=1;whiteSpace=wrap;html=1;" parent="1" vertex="1">
          <mxGeometry x="2370" y="1655" width="123" height="30" as="geometry" />
        </mxCell>
        <mxCell id="wG8J5El7ALpnyZ5ioJnW-133" value="Value" style="rounded=0;whiteSpace=wrap;html=1;" parent="1" vertex="1">
          <mxGeometry x="2633" y="1655" width="400" height="40" as="geometry" />
        </mxCell>
        <mxCell id="wG8J5El7ALpnyZ5ioJnW-134" value="Add" style="rounded=1;whiteSpace=wrap;html=1;" parent="1" vertex="1">
          <mxGeometry x="1470" y="1040" width="120" height="60" as="geometry" />
        </mxCell>
        <mxCell id="wG8J5El7ALpnyZ5ioJnW-135" value="" style="rounded=1;whiteSpace=wrap;html=1;arcSize=50;" parent="1" vertex="1">
          <mxGeometry x="2530" y="1055" width="120" height="30" as="geometry" />
        </mxCell>
        <mxCell id="wG8J5El7ALpnyZ5ioJnW-136" value="" style="ellipse;whiteSpace=wrap;html=1;aspect=fixed;" parent="1" vertex="1">
          <mxGeometry x="2610" y="1060" width="20" height="20" as="geometry" />
        </mxCell>
        <mxCell id="wG8J5El7ALpnyZ5ioJnW-137" value="View Mode" style="text;html=1;align=center;verticalAlign=middle;whiteSpace=wrap;rounded=0;" parent="1" vertex="1">
          <mxGeometry x="2440" y="1055" width="60" height="30" as="geometry" />
        </mxCell>
        <mxCell id="wG8J5El7ALpnyZ5ioJnW-138" value="Price" style="text;html=1;align=center;verticalAlign=middle;whiteSpace=wrap;rounded=0;" parent="1" vertex="1">
          <mxGeometry x="2310" y="1445" width="60" height="30" as="geometry" />
        </mxCell>
        <mxCell id="wG8J5El7ALpnyZ5ioJnW-139" value="20000000" style="rounded=1;whiteSpace=wrap;html=1;" parent="1" vertex="1">
          <mxGeometry x="2630" y="1430" width="410" height="60" as="geometry" />
        </mxCell>
        <mxCell id="SKHpmg1jaREUuWERE6yB-1" value="" style="rounded=1;whiteSpace=wrap;html=1;" parent="1" vertex="1">
          <mxGeometry x="580" y="240" width="430" height="120" as="geometry" />
        </mxCell>
        <mxCell id="SKHpmg1jaREUuWERE6yB-2" value="Category" style="text;html=1;align=center;verticalAlign=middle;whiteSpace=wrap;rounded=0;" parent="1" vertex="1">
          <mxGeometry x="310" y="247.5" width="200" height="105" as="geometry" />
        </mxCell>
        <mxCell id="RAKmdfoq-PCC5c8KJ4ON-1" value="" style="rounded=0;whiteSpace=wrap;html=1;" vertex="1" parent="1">
          <mxGeometry x="240" y="1120" width="180" height="800" as="geometry" />
        </mxCell>
        <mxCell id="RAKmdfoq-PCC5c8KJ4ON-2" value="" style="rounded=1;whiteSpace=wrap;html=1;" vertex="1" parent="1">
          <mxGeometry x="280" y="1150" width="120" height="60" as="geometry" />
        </mxCell>
        <mxCell id="RAKmdfoq-PCC5c8KJ4ON-3" value="" style="rounded=1;whiteSpace=wrap;html=1;" vertex="1" parent="1">
          <mxGeometry x="280" y="1240" width="120" height="60" as="geometry" />
        </mxCell>
      </root>
    </mxGraphModel>
  </diagram>
</mxfile>
